<svg width="580" height="379" viewBox="0 0 580 379" fill="none" xmlns="http://www.w3.org/2000/svg">
<path d="M563.563 377.119C538.271 377.336 512.066 375.088 488.441 365.184C457.345 352.172 435.872 323.279 425.074 292.293C416.642 268.096 411.387 242.87 401.506 219.174C394.082 201.363 376.543 188.793 359.323 181.162C332.589 169.309 305.312 169.104 276.934 175.198C248.153 181.373 217.525 196.811 187.332 191.367C164.079 187.163 130.68 165.171 144.245 137.244L158.4 134.505L161.79 133.855L165.341 133.163C178.322 138.703 187.874 150.652 202.544 151.844C215.792 152.93 225.423 146.72 235.971 139.018C256.686 123.884 277.229 112.412 303.736 114.804C332.08 117.371 354.407 134.57 377.997 148.629C400.075 161.779 425.128 165.419 450.482 165.166C474.52 164.92 501.868 164.451 523.987 175.44C537.774 182.293 545.022 192.559 548.387 204.419C553.878 223.694 549.135 247.178 545.666 267.052C541.387 291.475 532.535 323.728 541.458 348.746C542.683 352.202 544.253 355.515 546.22 358.657C550.785 365.937 556.843 372.011 563.563 377.119Z" fill="#E54D2E"/>
<path d="M563.624 377.488C538.332 377.704 512.127 375.456 488.502 365.553C457.406 352.54 435.933 323.648 425.135 292.661C416.703 268.464 411.448 243.239 401.567 219.542C394.143 201.731 376.604 189.161 359.384 181.53C332.65 169.678 305.373 169.473 276.995 175.566C248.214 181.741 217.586 197.18 187.393 191.735C164.14 187.531 130.741 165.539 144.306 137.612L158.461 134.873C164.838 157.18 174.793 172.019 200.086 174.155C224.416 176.196 248.006 172.301 271.344 165.474C288.799 160.377 304.83 150.538 323.144 148.62C342.018 146.649 361.681 152.141 375.993 164.631C390.573 177.362 399.827 190.583 406.971 208.42C415.936 230.818 421.476 254.601 430.88 276.791C449.077 319.705 493.665 337.155 535.532 347.719C537.178 348.134 539.211 348.588 541.519 349.114C542.744 352.571 544.314 355.883 546.281 359.025C550.846 366.306 556.904 372.38 563.624 377.488Z" fill="#FFF27B"/>
<path d="M548.448 203.792C546.979 202.806 545.593 201.735 544.359 200.84C536.626 195.216 528.95 189.645 520.443 185.221C507.535 178.519 494.751 174.962 479.982 175.689C457.029 176.823 430.219 183.079 407.804 174.807C381.93 165.257 364.78 140.724 340.573 128.55C326.487 121.474 311.986 119.243 296.476 121.959C277.479 125.28 261.396 136.662 245.284 146.527C228.792 156.634 208.352 164.812 188.806 158.299C181.581 155.888 175.324 151.54 169.835 146.31C165.845 142.505 163.806 137.924 161.851 133.228L165.403 132.536C178.384 138.076 187.936 150.024 202.605 151.216C215.854 152.303 225.485 146.093 236.033 138.39C256.747 123.257 277.291 111.784 303.798 114.176C332.141 116.744 354.468 133.943 378.059 148.001C400.136 161.152 425.189 164.792 450.544 164.538C474.582 164.293 501.93 163.824 524.048 174.813C537.836 181.666 545.083 191.932 548.448 203.792Z" fill="#FFF27B"/>
<path d="M135.807 102.791C141.933 101.94 149.982 102.859 156.048 103.72C162.256 104.604 168.693 106.444 172.836 111.433C170.083 111.972 166.887 112.012 163.995 112.397C183.131 123.544 183.729 144.708 178.358 164.237C171.629 162.544 163.992 165.557 156.962 164.352C150.73 163.281 144.515 162.016 138.793 159.297C138.531 160.432 138.549 161.804 138.406 162.926C130.085 159.14 125.228 152.503 120.836 144.504C119.336 141.768 112.933 131.117 116.202 128.319" fill="#FF9249"/>
<path d="M132.203 107.517C141.981 108.384 154.336 111.364 159.779 120.568C162.172 124.619 162.263 128.791 162.947 133.312C163.581 137.498 164.673 141.818 165.083 145.981C160.284 146.529 156.06 149.395 151.374 150.531C145.821 151.884 140.194 151.571 135.178 148.634C129.893 145.54 125.798 139.803 123.892 134.077C122.622 130.27 121.158 126.347 120.315 122.417C120.125 121.527 119.46 119.051 120.273 119.543" fill="#E54D2E"/>
<path d="M130.06 111.642C137.155 113.129 148.839 115.459 152.345 122.864C153.496 125.291 153.686 137.066 151.514 138.506C148.415 140.561 136.421 135.21 133.466 133.365C127.622 129.727 124.581 121.784 124.051 115.167" fill="white"/>
<path d="M127.416 92.7043L144.153 100.323L114.98 136.273L104.309 121.169" fill="#E54D2E"/>
<path d="M92.2078 103.652L80.3548 118.267L78.0107 141.779C30.8393 116.784 50.2284 76.8969 50.2284 76.8969L58.349 82.0811L73.7811 91.9065L92.2078 103.652Z" fill="#979DA9"/>
<path d="M142.363 62.491L119.831 69.6274L107.978 84.2427L93.6304 69.5993L79.9362 55.6182L73.1538 48.6648C73.1439 48.666 108.167 21.479 142.363 62.491Z" fill="#979DA9"/>
<path opacity="0.2" d="M73.7811 91.9065L92.2066 103.642L80.3536 118.257C80.3548 118.267 67.448 108.253 73.7811 91.9065Z" fill="#1B1E28"/>
<path opacity="0.2" d="M119.831 69.6275L107.978 84.2428L93.6304 69.5994C108.676 61.1337 119.831 69.6275 119.831 69.6275Z" fill="#1B1E28"/>
<path d="M73.144 48.6661L79.935 55.6083C109.454 36.4697 142.352 62.4823 142.352 62.4823C108.177 21.4779 73.144 48.6661 73.144 48.6661Z" fill="white"/>
<path d="M78.0107 141.779C78.0107 141.779 45.4563 114.972 58.3478 82.0712L50.2284 76.8969C50.2296 76.9068 30.8393 116.784 78.0107 141.779Z" fill="white"/>
<path d="M101.047 116.332L121.695 90.8876C121.695 90.8876 91.4622 38.7458 46.0798 26.7035C36.456 24.1514 26.151 23.4084 15.3024 25.3504C16.1765 36.0779 19.1788 45.7519 23.5756 54.4423C45.2886 97.4863 101.047 116.332 101.047 116.332Z" fill="#E54D2E"/>
<path d="M104.311 121.169L127.408 92.7056L116.419 83.7903L93.3213 112.254L104.311 121.169Z" fill="#FF9249"/>
<path d="M104.314 121.164L127.412 92.7008L123.073 89.1811L99.976 117.645L104.314 121.164Z" fill="#495B60"/>
<path d="M119.073 86.0325L95.5396 115.031C94.3281 116.524 92.1387 116.752 90.6556 115.54C89.1626 114.328 88.9343 112.139 90.147 110.656L113.689 81.6465C114.901 80.1537 117.09 79.9254 118.573 81.138C120.057 82.3506 120.285 84.5397 119.073 86.0325Z" fill="#031330"/>
<path d="M125.082 107.788C126.999 109.348 129.823 109.052 131.383 107.135C132.944 105.219 132.648 102.396 130.731 100.835C128.814 99.2743 125.991 99.5703 124.43 101.487C122.86 103.415 123.156 106.238 125.082 107.788Z" fill="white"/>
<path d="M23.5657 54.4436L46.07 26.7047C36.456 24.1515 26.151 23.4085 15.3024 25.3505C16.1654 36.0693 19.1677 45.7433 23.5657 54.4436Z" fill="#979DA9"/>
<path d="M15.3024 25.3504C15.3024 25.3504 29.5361 28.4308 39.2553 35.1143L46.0799 26.7034C36.456 24.1514 26.1511 23.4084 15.3024 25.3504Z" fill="#031330"/>
<path d="M24.6539 57.099L48.5456 27.6651C49.1452 26.9095 49.0415 25.8186 48.2845 25.2092L47.6607 24.7038C46.9136 24.0932 45.814 24.2079 45.2033 24.955L21.3227 54.3975C20.7119 55.1445 20.8267 56.244 21.5738 56.8546L22.1977 57.36C22.9436 57.9608 24.0432 57.846 24.6539 57.099Z" fill="white"/>
<path d="M46.7993 63.8242C52.4816 68.4345 60.8338 67.571 65.4434 61.8795C70.0543 56.1978 69.1907 47.8467 63.4985 43.2376C57.8161 38.6273 49.464 39.4908 44.8543 45.1823C40.2447 50.8738 41.1157 59.204 46.7993 63.8242Z" fill="white"/>
<path d="M48.4804 61.742C53.026 65.4282 59.6942 64.7411 63.371 60.1973C63.5109 60.0296 63.6386 59.8434 63.7675 59.6671C64.5222 58.6215 65.0449 57.484 65.3713 56.3004C65.6915 55.1475 65.7956 53.951 65.7205 52.7664C65.6033 51.1556 65.119 49.5797 64.2824 48.1574C63.6698 47.0889 62.8383 46.1174 61.8249 45.2986C57.2903 41.621 50.6222 42.3081 46.9355 46.8532C46.3682 47.5447 45.8995 48.3045 45.5431 49.0805C44.9012 50.4734 44.584 51.977 44.5767 53.4726C44.5733 54.9176 44.859 56.3473 45.4142 57.6837C46.0027 59.0462 46.8693 60.3043 48.0206 61.3469C48.1586 61.4905 48.325 61.6206 48.4804 61.742Z" fill="#110A60"/>
<path d="M44.5681 53.4842L65.7108 52.7683C65.5935 51.1573 65.1092 49.5812 64.2726 48.1587L45.5234 49.0829C44.8914 50.4747 44.5741 51.9784 44.5681 53.4842Z" fill="white"/>
<path d="M48.0218 61.3574L63.7787 59.6764C64.5334 58.6307 65.056 57.4931 65.3824 56.3093L45.4166 57.7036C45.994 59.0575 46.8607 60.3158 48.0218 61.3574Z" fill="white"/>
<path d="M66.6355 76.5909C67.2738 77.7869 66.8133 79.2681 65.6173 79.9063C64.4214 80.5446 62.9402 80.084 62.3019 78.8881C61.6636 77.6921 62.1241 76.2109 63.3201 75.5727C64.516 74.9344 65.996 75.3851 66.6355 76.5909Z" fill="#110A60"/>
<path d="M79.071 85.299C79.7093 86.4949 79.2488 87.9761 78.0529 88.6143C76.8569 89.2526 75.3757 88.7921 74.7374 87.5961C74.0991 86.4001 74.5596 84.919 75.7556 84.2807C76.9626 83.6511 78.4426 84.1018 79.071 85.299Z" fill="#110A60"/>
<path d="M190.964 3.98303C190.704 5.73017 190.504 14.3468 189.503 15.5181C188.523 16.6895 180.619 16.5307 178.278 16.7888C180.759 17.2454 188.443 17.4638 189.183 18.8734C189.683 19.8264 190.744 27.8474 191.004 29.8725C191.284 28.0459 191.564 20.0845 192.625 18.8734C193.685 17.6822 201.889 17.3447 204.17 16.9278C202.409 16.6299 193.765 16.9079 192.465 15.677C191.164 14.446 191.324 5.67061 190.964 3.98303Z" fill="#FFF27B"/>
<path d="M97.3522 194.171C97.0921 195.918 96.892 204.535 95.8915 205.706C94.9111 206.877 87.0072 206.719 84.6661 206.977C87.1473 207.433 94.831 207.652 95.5714 209.061C96.0716 210.014 97.1321 218.035 97.3923 220.06C97.6724 218.234 97.9525 210.272 99.013 209.061C100.074 207.87 108.278 207.533 110.559 207.116C108.798 206.818 100.154 207.096 98.853 205.865C97.5523 204.634 97.7124 195.858 97.3522 194.171Z" fill="#FFF27B"/>
<path d="M292.442 194.171C292.082 196.59 291.805 208.521 290.42 210.143C289.062 211.764 278.119 211.545 274.877 211.902C278.312 212.534 288.951 212.837 289.977 214.788C290.669 216.108 292.138 227.214 292.498 230.018C292.886 227.489 293.274 216.465 294.742 214.788C296.21 213.139 307.57 212.672 310.728 212.094C308.29 211.682 296.321 212.067 294.52 210.362C292.719 208.658 292.941 196.508 292.442 194.171Z" fill="#FFF27B"/>
<g clip-path="url(#clip0_403_209)">
<path d="M48.6128 163.303C48.6128 163.701 48.6011 164.099 48.5738 164.493C48.5698 164.548 48.5659 164.598 48.562 164.653C48.5386 165.004 48.5074 165.352 48.4606 165.695C48.4372 165.875 48.4137 166.054 48.3825 166.234C48.0898 168.118 47.5122 169.91 46.6965 171.561C46.5131 171.935 46.3141 172.306 46.1033 172.665C46.0526 172.759 45.998 172.844 45.9433 172.934C45.596 173.516 45.2174 174.074 44.8115 174.608C43.1139 176.848 40.9205 178.694 38.3955 179.982C35.8431 181.286 32.9551 182.019 29.8953 182.019C28.9548 182.019 28.0337 181.949 27.1322 181.816C21.8753 181.04 17.3325 178.078 14.4523 173.883C13.102 171.923 12.1224 169.691 11.5994 167.287C11.4862 166.76 11.3926 166.226 11.3262 165.683C11.2716 165.274 11.2326 164.856 11.2091 164.438C11.1857 164.064 11.174 163.685 11.174 163.303C11.174 162.745 11.1974 162.194 11.2482 161.648C11.3028 161.016 11.3887 160.395 11.5057 159.787C11.5409 159.599 11.5799 159.412 11.6228 159.225C11.8219 158.319 12.0872 157.437 12.419 156.586C12.497 156.38 12.579 156.173 12.6648 155.97C13.0785 154.998 13.5742 154.069 14.1401 153.191C14.8113 152.145 15.5841 151.174 16.4466 150.288C17.4145 149.289 18.4877 148.395 19.6585 147.634C20.841 146.857 22.1172 146.214 23.4676 145.726C23.5378 145.695 23.612 145.671 23.6861 145.644C25.6297 144.957 27.7215 144.586 29.8953 144.586C35.8197 144.586 41.1 147.337 44.5266 151.634C45.2642 152.551 45.9121 153.539 46.4585 154.584C46.8995 155.42 47.2781 156.29 47.5903 157.191C47.762 157.683 47.9103 158.187 48.0391 158.694C48.4137 160.169 48.6128 161.714 48.6128 163.303Z" fill="#B538AB"/>
<path d="M29.8953 189.192C28.6269 189.192 27.339 189.098 26.0745 188.911C18.9989 187.865 12.6062 183.865 8.53569 177.937C6.63507 175.178 5.30424 172.107 4.59004 168.813C4.42223 168.036 4.30124 167.311 4.21148 166.592C4.13733 166.034 4.08269 165.453 4.05147 164.871C4.01634 164.356 4.00073 163.829 4.00073 163.303C4.00073 162.503 4.03586 161.753 4.1022 161.012C4.17635 160.145 4.29734 159.279 4.45735 158.44C4.50418 158.183 4.55882 157.921 4.62126 157.66C4.89445 156.411 5.26521 155.181 5.72183 154.011C5.8272 153.73 5.94038 153.445 6.06137 153.16C6.62336 151.837 7.31024 150.541 8.10249 149.316C9.02743 147.876 10.1007 146.526 11.2949 145.3C12.6531 143.899 14.1478 142.662 15.7362 141.628C17.3831 140.547 19.1511 139.661 20.9893 138.994C21.0634 138.963 21.1415 138.935 21.2156 138.908L21.2976 138.877C24.0529 137.905 26.9448 137.413 29.8953 137.413C37.8178 137.413 45.1939 140.968 50.1347 147.162C51.1573 148.434 52.0549 149.808 52.8081 151.244C53.4169 152.399 53.9438 153.613 54.3731 154.846C54.5995 155.494 54.8102 156.192 54.9936 156.926C55.5205 158.998 55.7859 161.145 55.7859 163.299C55.7859 163.876 55.7664 164.43 55.7312 164.95L55.7156 165.164C55.6766 165.714 55.6337 166.175 55.5751 166.612C55.5439 166.862 55.5088 167.112 55.4659 167.361C55.0678 169.914 54.2833 172.396 53.1359 174.721C52.8823 175.241 52.6052 175.756 52.3125 176.251C52.2617 176.341 52.1993 176.446 52.1368 176.548L52.09 176.626C51.6217 177.41 51.0948 178.191 50.525 178.94C48.1756 182.039 45.1081 184.611 41.6502 186.371C37.9934 188.244 34.036 189.192 29.8953 189.192ZM29.8953 138.584C27.0775 138.584 24.3183 139.052 21.6957 139.981L21.6059 140.012C21.5513 140.032 21.4966 140.051 21.442 140.075L21.4029 140.09C19.6467 140.726 17.9529 141.573 16.3762 142.607C14.8581 143.595 13.4297 144.773 12.134 146.112C10.9944 147.283 9.96799 148.571 9.08597 149.948C8.32885 151.119 7.67709 152.356 7.13852 153.617C7.02534 153.882 6.91606 154.155 6.81459 154.428C6.37749 155.548 6.02624 156.719 5.76086 157.913C5.70232 158.163 5.65158 158.409 5.60475 158.655C5.44864 159.459 5.33546 160.286 5.26521 161.113C5.20277 161.827 5.17155 162.538 5.17155 163.303C5.17155 163.806 5.18716 164.31 5.21838 164.801C5.2496 165.355 5.30034 165.91 5.37059 166.444C5.45645 167.135 5.57353 167.826 5.73354 168.567C6.41651 171.709 7.6849 174.64 9.49966 177.274C13.3868 182.936 19.4906 186.757 26.2462 187.752C27.4561 187.932 28.6815 188.021 29.8953 188.021C33.8487 188.021 37.6265 187.116 41.1195 185.332C44.4212 183.65 47.3521 181.196 49.5923 178.234C50.1347 177.52 50.6382 176.774 51.087 176.025L51.1377 175.939C51.1885 175.853 51.2431 175.771 51.29 175.682C51.5749 175.194 51.8402 174.706 52.0822 174.21C53.1789 171.99 53.9282 169.621 54.3107 167.178C54.3536 166.936 54.3848 166.702 54.4121 166.468C54.4707 166.054 54.5097 165.617 54.5448 165.09L54.5604 164.871C54.5956 164.38 54.6112 163.853 54.6112 163.303C54.6112 161.242 54.3575 159.197 53.854 157.215C53.6784 156.516 53.4794 155.849 53.2608 155.232C52.851 154.05 52.3476 152.891 51.7661 151.786C51.048 150.413 50.1933 149.105 49.2176 147.892C44.5031 141.975 37.4587 138.584 29.8953 138.584Z" fill="#BEE3FF"/>
<path d="M33.2592 178.742C34.9686 179.159 36.6819 179.573 38.3952 179.983C35.8428 181.286 32.9548 182.02 29.8951 182.02C23.4829 182.02 17.824 178.796 14.452 173.882C20.6925 175.604 26.9719 177.204 33.2592 178.742Z" fill="#FF9249"/>
<path d="M32.799 167.666C37.4276 168.981 42.0562 170.285 46.6965 171.561C46.1658 172.638 45.5335 173.66 44.8115 174.609C42.8407 174.199 40.8659 173.781 38.8989 173.352C29.7587 171.366 20.7513 169.036 11.5994 167.287C11.3223 166.003 11.174 164.669 11.174 163.303C11.174 162.745 11.1974 162.195 11.2482 161.648C18.4604 163.58 25.6453 165.633 32.799 167.666Z" fill="#FF9249"/>
<path d="M38.2702 156.774C30.2501 155.451 22.1637 154.518 14.1397 153.191C14.811 152.145 15.5837 151.173 16.4462 150.288C22.6632 151.708 28.9115 153.062 35.1285 154.456C39.2615 155.38 43.4491 156.212 47.5899 157.191C47.7616 157.683 47.9099 158.186 48.0387 158.694C44.8034 157.952 41.5485 157.312 38.2702 156.774Z" fill="#FF9249"/>
<path d="M48.5734 164.493C48.5695 164.548 48.5656 164.598 48.5617 164.653C48.55 164.821 48.5383 164.989 48.5187 165.153C48.5187 165.168 48.5187 165.184 48.5148 165.199C48.5031 165.367 48.4836 165.531 48.4602 165.695C48.4368 165.874 48.4134 166.054 48.3821 166.234C43.4725 165.297 38.559 164.388 33.6338 163.533C26.2654 162.253 18.8893 161.004 11.5054 159.787C11.5405 159.599 11.5795 159.412 11.6225 159.225V159.221C11.7981 158.428 12.0244 157.652 12.2976 156.899C12.4108 156.586 12.5357 156.274 12.6645 155.97C18.4366 157.445 24.2516 158.799 30.0433 160.157C36.2174 161.605 42.3954 163.053 48.5734 164.493Z" fill="#FF9249"/>
<path d="M46.1034 172.665C46.0527 172.758 45.998 172.844 45.9434 172.934C45.1082 172.825 44.273 172.743 43.512 172.583C37.0881 171.233 30.6448 169.96 24.2248 168.606C19.9201 167.697 15.6505 166.522 11.3263 165.683C11.2717 165.273 11.2326 164.856 11.2092 164.438C17.7853 165.375 24.2521 166.92 30.6916 168.528C34.4928 169.476 38.2512 170.596 42.0329 171.615C43.313 171.958 44.7336 172.275 46.1034 172.665Z" fill="#F2BEB7"/>
<path d="M46.4583 154.584C43.9489 153.956 41.4355 153.34 38.9261 152.703C33.3101 151.283 27.7565 149.609 22.1366 148.196C21.3405 147.997 20.5053 147.817 19.6584 147.634C20.8409 146.857 22.1171 146.214 23.4674 145.726C28.2249 147.002 32.9667 148.337 37.7241 149.609C40.0111 150.221 42.2824 150.889 44.5265 151.634C45.2641 152.551 45.912 153.539 46.4583 154.584Z" fill="#F2BEB7"/>
<path d="M48.5618 164.653C48.5501 164.821 48.5384 164.989 48.5188 165.153C48.5188 165.168 48.5188 165.184 48.5149 165.2C48.5032 165.367 48.4837 165.531 48.4603 165.695C47.9022 165.605 47.348 165.512 46.8095 165.426C44.5576 165.059 42.2784 164.778 40.1163 164.107C37.9425 163.428 35.4994 163.463 33.267 162.971C30.9293 162.456 28.6228 161.824 26.2656 161.387C22.6048 160.704 18.9441 160.044 15.2482 159.556C14.0461 159.4 12.8246 159.381 11.6226 159.225V159.221C11.7982 158.429 12.0245 157.652 12.2977 156.899C13.972 157.246 16.782 158.112 18.0464 158.538C20.31 159.295 22.7141 159.549 25.0284 160.142C29.216 161.211 33.4153 162.156 37.6342 162.967C38.3835 163.112 48.5618 164.638 48.5618 164.653Z" fill="#F2BEB7"/>
<path opacity="0.2" d="M27.1322 181.816C21.8753 181.04 17.3325 178.078 14.4523 173.883C13.102 171.923 12.1224 169.691 11.5994 167.287C11.3223 166.003 11.174 164.669 11.174 163.303C11.174 162.745 11.1974 162.194 11.2482 161.648C11.3028 161.016 11.3887 160.395 11.5057 159.787C11.7555 158.46 12.1497 157.184 12.6648 155.97C13.0785 154.998 13.5742 154.069 14.1401 153.191C14.8113 152.145 15.5841 151.174 16.4466 150.288C18.4448 148.223 20.9152 146.616 23.6861 145.644C18.9677 152.789 17.754 162.233 20.4352 170.487C21.8128 174.726 24.2988 178.417 27.1322 181.816Z" fill="#FF9085"/>
<path d="M36.5925 151.884C32.9201 155.298 35.2227 164.376 40.6201 164.657C45.319 164.902 44.9248 159.747 44.0701 156.625C43.4652 154.412 42.6144 152.77 40.5616 151.72C39.2659 151.06 37.9116 150.537 36.5925 151.884Z" fill="#EDD6F2"/>
</g>
<g clip-path="url(#clip1_403_209)">
<path d="M285.831 54.258C285.831 61.526 281.102 67.709 274.529 69.8791C272.911 70.4114 271.191 70.6981 269.389 70.6981C260.319 70.6981 252.968 63.3277 252.968 54.258C252.968 46.0277 259.008 39.2101 266.912 38.0226C267.71 37.8998 268.55 37.8384 269.389 37.8384C278.481 37.8384 285.831 45.1883 285.831 54.258Z" fill="#FFBC4D"/>
<path opacity="0.2" d="M274.529 69.8789C272.911 70.4113 271.191 70.6979 269.389 70.6979C260.319 70.6979 252.968 63.3275 252.968 54.2578C252.968 46.0275 259.008 39.2099 266.912 38.0225C265.827 41.7691 265.294 45.5976 265.151 48.1363C264.475 60.0927 268.181 64.8016 274.529 69.8789Z" fill="#4E2A67"/>
</g>
<defs>
<clipPath id="clip0_403_209">
<rect width="51.7852" height="51.7789" fill="white" transform="translate(4.00073 137.413)"/>
</clipPath>
<clipPath id="clip1_403_209">
<rect width="32.8637" height="32.8597" fill="white" transform="translate(252.968 37.8384)"/>
</clipPath>
</defs>
</svg>
