<svg width="569" height="363" viewBox="0 0 569 363" fill="none" xmlns="http://www.w3.org/2000/svg">
<path d="M568.027 361.176C542.772 362.57 516.491 361.544 492.431 352.752C460.762 341.202 437.967 313.341 425.738 282.891C416.188 259.112 409.764 234.159 398.79 210.948C390.544 193.503 372.44 181.763 354.883 174.942C327.626 164.347 300.369 165.413 272.305 172.822C243.843 180.33 213.967 197.178 183.553 193.145C160.13 190.029 125.743 169.616 137.993 141.088L152.004 137.692L155.361 136.886L158.876 136.029C172.101 140.958 182.199 152.449 196.908 152.957C210.193 153.425 219.524 146.773 229.702 138.588C249.689 122.507 269.676 110.089 296.266 111.244C324.698 112.489 347.802 128.63 372.022 141.574C394.687 153.683 419.883 156.152 445.198 154.718C469.198 153.354 496.495 151.611 519.101 161.558C533.193 167.762 540.911 177.679 544.824 189.369C551.208 208.368 547.563 232.047 545.023 252.062C541.886 276.657 534.546 309.287 544.624 333.862C546.009 337.258 547.731 340.494 549.843 343.541C554.742 350.601 561.076 356.386 568.027 361.176Z" fill="#E54D2E"/>
<path d="M568.105 361.541C542.85 362.935 516.569 361.91 492.509 353.117C460.84 341.567 438.045 313.706 425.816 283.256C416.266 259.478 409.842 234.524 398.868 211.313C390.622 193.868 372.518 182.128 354.961 175.307C327.704 164.713 300.447 165.778 272.383 173.187C243.921 180.695 214.045 197.543 183.631 193.511C160.209 190.394 125.821 169.981 138.071 141.453L152.083 138.058C159.492 160.044 170.127 174.402 195.492 175.358C219.891 176.264 243.274 171.275 266.269 163.369C283.467 157.464 299.023 146.889 317.227 144.121C335.989 141.273 355.887 145.843 370.765 157.653C385.922 169.691 395.781 182.467 403.748 199.952C413.746 221.908 420.389 245.408 430.815 267.135C450.991 309.155 496.343 324.509 538.657 333.112C540.321 333.451 542.372 333.809 544.702 334.228C546.087 337.623 547.809 340.859 549.921 343.906C554.82 350.966 561.154 356.751 568.105 361.541Z" fill="#FFF27B"/>
<path d="M544.857 188.74C543.343 187.824 541.909 186.818 540.634 185.982C532.647 180.724 524.72 175.517 516.016 171.494C502.811 165.4 489.875 162.443 475.156 163.857C452.281 166.057 425.791 173.555 403.015 166.336C376.724 158.002 358.45 134.294 333.703 123.261C319.303 116.848 304.714 115.295 289.347 118.73C270.525 122.933 254.99 135.051 239.355 145.656C223.351 156.519 203.314 165.641 183.486 160.045C176.157 157.973 169.703 153.921 163.977 148.952C159.815 145.337 157.564 140.857 155.393 136.256L158.908 135.4C172.133 140.329 182.231 151.82 196.94 152.327C210.225 152.795 219.557 146.144 229.734 137.959C249.722 121.877 269.709 109.46 296.298 110.615C324.73 111.86 347.835 128 372.054 140.945C394.72 153.053 419.915 155.523 445.23 154.089C469.231 152.724 496.527 150.981 519.134 160.929C533.225 167.132 540.943 177.05 544.857 188.74Z" fill="#FFF27B"/>
<path d="M127.96 107.065C134.04 105.93 142.123 106.473 148.222 107.051C154.465 107.645 160.98 109.183 165.351 113.974C162.626 114.64 159.435 114.829 156.564 115.348C176.198 125.592 177.782 146.706 173.326 166.463C166.526 165.085 159.037 168.451 151.958 167.575C145.683 166.794 139.416 165.821 133.574 163.371C133.365 164.517 133.447 165.887 133.356 167.014C124.868 163.62 119.707 157.216 114.947 149.43C113.322 146.768 106.43 136.426 109.565 133.478" fill="#FF9249"/>
<path d="M124.579 111.954C134.388 112.365 146.868 114.766 152.734 123.707C155.313 127.642 155.597 131.805 156.492 136.289C157.32 140.441 158.612 144.706 159.215 148.845C154.447 149.616 150.361 152.675 145.733 154.029C140.249 155.639 134.613 155.588 129.466 152.888C124.042 150.044 119.685 144.503 117.514 138.872C116.069 135.129 114.423 131.278 113.398 127.392C113.167 126.512 112.388 124.069 113.223 124.523" fill="#E54D2E"/>
<path d="M122.631 116.174C129.788 117.33 141.567 119.113 145.415 126.346C146.677 128.717 147.415 140.47 145.313 142.01C142.313 144.207 130.083 139.42 127.045 137.715C121.038 134.354 117.63 126.56 116.792 119.976" fill="white"/>
<path d="M119.108 97.3803L136.182 104.212L108.715 141.481L97.3515 126.89" fill="#E54D2E"/>
<path d="M84.4477 109.956L73.2882 125.107L72.0416 148.702C23.7574 125.931 41.268 85.1846 41.268 85.1846L49.6211 89.985L65.494 99.0811L84.4477 109.956Z" fill="#979DA9"/>
<path d="M132.632 66.5038L110.456 74.6819L99.2967 89.8332L84.283 75.8739L69.9525 62.5457L62.8537 55.9157C62.8439 55.9174 96.563 27.1288 132.632 66.5038Z" fill="#979DA9"/>
<path opacity="0.2" d="M65.494 99.0811L84.446 109.946L73.2866 125.097C73.2882 125.107 59.929 115.704 65.494 99.0811Z" fill="#1B1E28"/>
<path opacity="0.2" d="M110.456 74.6818L99.2968 89.8332L84.283 75.8738C98.9176 66.7167 110.456 74.6818 110.456 74.6818Z" fill="#1B1E28"/>
<path d="M62.844 55.9173L69.9509 62.5358C98.5463 42.0433 132.62 66.4956 132.62 66.4956C96.5729 27.1271 62.844 55.9173 62.844 55.9173Z" fill="white"/>
<path d="M72.0416 148.702C72.0416 148.702 38.2741 123.44 49.6195 89.9752L41.268 85.1846C41.2696 85.1945 23.7574 125.931 72.0416 148.702Z" fill="white"/>
<path d="M93.8678 122.211L113.309 95.832C113.309 95.832 80.6803 45.1547 34.7864 35.2389C25.0542 33.1378 14.7258 32.8755 3.97938 35.3206C5.35206 45.9957 8.80166 55.5194 13.5984 63.9956C37.2924 105.982 93.8678 122.211 93.8678 122.211Z" fill="#E54D2E"/>
<path d="M97.3532 126.89L119.1 97.382L107.707 88.9881L85.9607 118.496L97.3532 126.89Z" fill="#FF9249"/>
<path d="M97.3568 126.885L119.103 97.3771L114.606 94.0633L92.8591 123.571L97.3568 126.885Z" fill="#495B60"/>
<path d="M110.464 91.1043L88.3059 121.167C87.1652 122.715 84.9888 123.045 83.4508 121.903C81.903 120.762 81.573 118.586 82.7154 117.048L104.881 86.9737C106.022 85.4261 108.198 85.0961 109.736 86.2383C111.274 87.3806 111.604 89.5567 110.464 91.1043Z" fill="#031330"/>
<path d="M117.479 112.556C119.467 114.026 122.273 113.599 123.743 111.611C125.213 109.624 124.786 106.818 122.798 105.348C120.81 103.878 118.004 104.305 116.534 106.293C115.056 108.292 115.483 111.098 117.479 112.556Z" fill="white"/>
<path d="M13.5885 63.9973L34.7766 35.2406C25.0542 33.1378 14.7258 32.8755 3.97936 35.3206C5.34055 45.9876 8.79016 55.5113 13.5885 63.9973Z" fill="#979DA9"/>
<path d="M3.97935 35.3205C3.97935 35.3205 18.341 37.7347 28.3609 43.9584L34.7864 35.2388C25.0542 33.1377 14.7258 32.8754 3.97935 35.3205Z" fill="#031330"/>
<path d="M14.7992 66.5993L37.2942 36.0847C37.858 35.3019 37.7037 34.2171 36.9191 33.6436L36.2724 33.1678C35.4977 32.5926 34.4046 32.7585 33.8293 33.5331L11.3458 64.0558C10.7705 64.8305 10.9363 65.9234 11.7111 66.4986L12.3578 66.9744C13.1308 67.5397 14.2239 67.3739 14.7992 66.5993Z" fill="white"/>
<path d="M37.2337 72.2859C43.1246 76.6265 51.4275 75.375 55.7671 69.475C60.1083 63.5848 58.8568 55.2829 52.9561 50.9439C47.0652 46.6033 38.7623 47.8548 34.4227 53.7548C30.0832 59.6548 31.3412 67.9354 37.2337 72.2859Z" fill="white"/>
<path d="M38.8161 70.1275C43.5284 73.5981 50.1573 72.6012 53.6186 67.8911C53.7506 67.7171 53.8694 67.5251 53.99 67.343C54.6952 66.2634 55.1643 65.1028 55.4353 63.9052C55.7014 62.7388 55.7496 61.5387 55.6195 60.3588C55.4274 58.7552 54.8703 57.2036 53.9683 55.8218C53.3066 54.783 52.4308 53.8513 51.3803 53.0806C46.6795 49.6181 40.0506 50.615 36.5795 55.3269C36.045 56.0441 35.6122 56.8248 35.2924 57.6166C34.716 59.0378 34.4691 60.5546 34.5316 62.0489C34.5955 63.4926 34.9474 64.9074 35.5642 66.2165C36.2155 67.55 37.1398 68.7664 38.3384 69.7543C38.4829 69.8913 38.6552 70.0135 38.8161 70.1275Z" fill="#110A60"/>
<path d="M34.5235 62.061L55.6098 60.3612C55.4176 58.7574 54.8605 57.2056 53.9586 55.8237L35.2727 57.6199C34.7062 59.0397 34.4593 60.5566 34.5235 62.061Z" fill="white"/>
<path d="M38.3401 69.7647L54.0016 67.3517C54.7067 66.272 55.1759 65.1113 55.4468 63.9136L35.5676 66.2362C36.2074 67.5618 37.1317 68.7783 38.3401 69.7647Z" fill="white"/>
<path d="M57.643 84.115C58.3363 85.2799 57.9453 86.7809 56.7803 87.4742C55.6154 88.1675 54.1143 87.7764 53.421 86.6115C52.7278 85.4465 53.1188 83.9455 54.2837 83.2522C55.4486 82.559 56.948 82.9402 57.643 84.115Z" fill="#110A60"/>
<path d="M70.4705 92.2344C71.1638 93.3994 70.7728 94.9004 69.6079 95.5936C68.4429 96.2869 66.9419 95.8958 66.2486 94.7309C65.5553 93.566 65.9463 92.0649 67.1112 91.3717C68.2877 90.6866 69.787 91.0678 70.4705 92.2344Z" fill="#110A60"/>
<path d="M186.964 0.983032C186.704 2.73017 186.504 11.3468 185.503 12.5181C184.523 13.6895 176.619 13.5307 174.278 13.7888C176.759 14.2454 184.443 14.4638 185.183 15.8734C185.683 16.8264 186.744 24.8474 187.004 26.8725C187.284 25.0459 187.564 17.0845 188.625 15.8734C189.685 14.6822 197.889 14.3447 200.17 13.9278C198.409 13.6299 189.765 13.9079 188.465 12.677C187.164 11.446 187.324 2.67061 186.964 0.983032Z" fill="#FFF27B"/>
<path d="M93.3522 191.171C93.0921 192.918 92.892 201.535 91.8915 202.706C90.9111 203.877 83.0072 203.719 80.6661 203.977C83.1473 204.433 90.831 204.652 91.5714 206.061C92.0716 207.014 93.1321 215.035 93.3923 217.06C93.6724 215.234 93.9525 207.272 95.013 206.061C96.0736 204.87 104.278 204.533 106.559 204.116C104.798 203.818 96.1536 204.096 94.853 202.865C93.5523 201.634 93.7124 192.858 93.3522 191.171Z" fill="#FFF27B"/>
<path d="M288.442 191.171C288.082 193.59 287.805 205.521 286.42 207.143C285.062 208.764 274.119 208.545 270.877 208.902C274.312 209.534 284.951 209.837 285.977 211.788C286.669 213.108 288.138 224.214 288.498 227.018C288.886 224.489 289.274 213.465 290.742 211.788C292.21 210.139 303.57 209.672 306.728 209.094C304.29 208.682 292.321 209.067 290.52 207.362C288.719 205.658 288.941 193.508 288.442 191.171Z" fill="#FFF27B"/>
<g clip-path="url(#clip0_403_209)">
<path d="M44.6128 160.303C44.6128 160.701 44.6011 161.099 44.5737 161.493C44.5698 161.548 44.5659 161.598 44.562 161.653C44.5386 162.004 44.5074 162.352 44.4606 162.695C44.4372 162.875 44.4137 163.054 44.3825 163.234C44.0898 165.118 43.5122 166.91 42.6965 168.561C42.5131 168.935 42.3141 169.306 42.1033 169.665C42.0526 169.759 41.998 169.844 41.9433 169.934C41.596 170.516 41.2174 171.074 40.8115 171.608C39.1138 173.848 36.9205 175.694 34.3955 176.982C31.8431 178.286 28.9551 179.019 25.8953 179.019C24.9548 179.019 24.0337 178.949 23.1322 178.816C17.8753 178.04 13.3325 175.078 10.4523 170.883C9.10195 168.923 8.12237 166.691 7.59941 164.287C7.48623 163.76 7.39256 163.226 7.32622 162.683C7.27158 162.274 7.23255 161.856 7.20914 161.438C7.18572 161.064 7.17401 160.685 7.17401 160.303C7.17401 159.745 7.19743 159.194 7.24816 158.648C7.3028 158.016 7.38866 157.395 7.50574 156.787C7.54087 156.599 7.57989 156.412 7.62282 156.225C7.82186 155.319 8.08725 154.437 8.41898 153.586C8.49703 153.38 8.57899 153.173 8.66485 152.97C9.07854 151.998 9.57418 151.069 10.1401 150.191C10.8113 149.145 11.5841 148.174 12.4466 147.288C13.4145 146.289 14.4877 145.395 15.6585 144.634C16.841 143.857 18.1172 143.214 19.4676 142.726C19.5378 142.695 19.612 142.671 19.6861 142.644C21.6297 141.957 23.7215 141.586 25.8953 141.586C31.8197 141.586 37.1 144.337 40.5266 148.634C41.2642 149.551 41.9121 150.539 42.4585 151.584C42.8995 152.42 43.278 153.29 43.5903 154.191C43.762 154.683 43.9103 155.187 44.0391 155.694C44.4137 157.169 44.6128 158.714 44.6128 160.303Z" fill="#B538AB"/>
<path d="M25.8953 186.192C24.6269 186.192 23.339 186.098 22.0745 185.911C14.9989 184.865 8.60622 180.865 4.53569 174.937C2.63507 172.178 1.30424 169.107 0.590043 165.813C0.422226 165.036 0.301242 164.311 0.211479 163.592C0.137328 163.034 0.0826895 162.453 0.0514677 161.871C0.0163433 161.356 0.000732422 160.829 0.000732422 160.303C0.000732422 159.503 0.0358569 158.753 0.102203 158.012C0.176355 157.145 0.297339 156.279 0.45735 155.44C0.504183 155.183 0.558821 154.921 0.621264 154.66C0.894455 153.411 1.26521 152.181 1.72183 151.011C1.8272 150.73 1.94038 150.445 2.06137 150.16C2.62336 148.837 3.31024 147.541 4.10249 146.316C5.02743 144.876 6.10068 143.526 7.29491 142.3C8.65306 140.899 10.1478 139.662 11.7362 138.628C13.3831 137.547 15.1511 136.661 16.9893 135.994C17.0634 135.963 17.1415 135.935 17.2156 135.908L17.2976 135.877C20.0529 134.905 22.9448 134.413 25.8953 134.413C33.8178 134.413 41.1939 137.968 46.1348 144.162C47.1573 145.434 48.0549 146.808 48.8081 148.244C49.4169 149.399 49.9438 150.613 50.3731 151.846C50.5995 152.494 50.8102 153.192 50.9936 153.926C51.5205 155.998 51.7859 158.145 51.7859 160.299C51.7859 160.876 51.7664 161.43 51.7312 161.95L51.7156 162.164C51.6766 162.714 51.6337 163.175 51.5751 163.612C51.5439 163.862 51.5088 164.112 51.4659 164.361C51.0678 166.914 50.2833 169.396 49.1359 171.721C48.8823 172.241 48.6052 172.756 48.3125 173.251C48.2617 173.341 48.1993 173.446 48.1368 173.548L48.09 173.626C47.6217 174.41 47.0948 175.191 46.525 175.94C44.1756 179.039 41.1081 181.611 37.6502 183.371C33.9934 185.244 30.036 186.192 25.8953 186.192ZM25.8953 135.584C23.0775 135.584 20.3183 136.052 17.6957 136.981L17.6059 137.012C17.5513 137.032 17.4966 137.051 17.442 137.075L17.4029 137.09C15.6467 137.726 13.9529 138.573 12.3762 139.607C10.8581 140.595 9.4297 141.773 8.13399 143.112C6.9944 144.283 5.96799 145.571 5.08597 146.948C4.32885 148.119 3.67709 149.356 3.13852 150.617C3.02534 150.882 2.91606 151.155 2.81459 151.428C2.37749 152.548 2.02624 153.719 1.76086 154.913C1.70232 155.163 1.65158 155.409 1.60475 155.655C1.44864 156.459 1.33546 157.286 1.26521 158.113C1.20277 158.827 1.17155 159.538 1.17155 160.303C1.17155 160.806 1.18716 161.31 1.21838 161.801C1.2496 162.355 1.30034 162.91 1.37059 163.444C1.45645 164.135 1.57353 164.826 1.73354 165.567C2.41651 168.709 3.6849 171.64 5.49966 174.274C9.38677 179.936 15.4906 183.757 22.2462 184.752C23.4561 184.932 24.6815 185.021 25.8953 185.021C29.8487 185.021 33.6265 184.116 37.1195 182.332C40.4212 180.65 43.3521 178.196 45.5923 175.234C46.1348 174.52 46.6382 173.774 47.087 173.025L47.1377 172.939C47.1885 172.853 47.2431 172.771 47.29 172.682C47.5749 172.194 47.8402 171.706 48.0822 171.21C49.1789 168.99 49.9282 166.621 50.3107 164.178C50.3536 163.936 50.3848 163.702 50.4121 163.468C50.4707 163.054 50.5097 162.617 50.5448 162.09L50.5604 161.871C50.5956 161.38 50.6112 160.853 50.6112 160.303C50.6112 158.242 50.3575 156.197 49.854 154.215C49.6784 153.516 49.4794 152.849 49.2608 152.232C48.851 151.05 48.3476 149.891 47.7661 148.786C47.048 147.413 46.1933 146.105 45.2176 144.892C40.5031 138.975 33.4587 135.584 25.8953 135.584Z" fill="#BEE3FF"/>
<path d="M29.2592 175.742C30.9686 176.159 32.6819 176.573 34.3952 176.983C31.8428 178.286 28.9548 179.02 25.8951 179.02C19.4829 179.02 13.824 175.796 10.452 170.882C16.6925 172.604 22.9719 174.204 29.2592 175.742Z" fill="#FF9249"/>
<path d="M28.799 164.666C33.4276 165.981 38.0562 167.285 42.6965 168.561C42.1658 169.638 41.5335 170.66 40.8115 171.609C38.8407 171.199 36.8659 170.781 34.8989 170.352C25.7587 168.366 16.7513 166.036 7.59941 164.287C7.32231 163.003 7.17401 161.669 7.17401 160.303C7.17401 159.745 7.19743 159.195 7.24816 158.648C14.4604 160.58 21.6453 162.633 28.799 164.666Z" fill="#FF9249"/>
<path d="M34.2702 153.774C26.2501 152.451 18.1637 151.518 10.1397 150.191C10.811 149.145 11.5837 148.173 12.4462 147.288C18.6632 148.708 24.9115 150.062 31.1285 151.456C35.2615 152.38 39.4491 153.212 43.5899 154.191C43.7616 154.683 43.9099 155.186 44.0387 155.694C40.8034 154.952 37.5485 154.312 34.2702 153.774Z" fill="#FF9249"/>
<path d="M44.5734 161.493C44.5695 161.548 44.5656 161.598 44.5617 161.653C44.55 161.821 44.5382 161.989 44.5187 162.153C44.5187 162.168 44.5187 162.184 44.5148 162.199C44.5031 162.367 44.4836 162.531 44.4602 162.695C44.4368 162.874 44.4134 163.054 44.3821 163.234C39.4725 162.297 34.559 161.388 29.6338 160.533C22.2654 159.253 14.8893 158.004 7.50537 156.787C7.5405 156.599 7.57952 156.412 7.62245 156.225V156.221C7.79808 155.428 8.02443 154.652 8.29762 153.899C8.4108 153.586 8.53569 153.274 8.66448 152.97C14.4366 154.445 20.2516 155.799 26.0433 157.157C32.2174 158.605 38.3954 160.053 44.5734 161.493Z" fill="#FF9249"/>
<path d="M42.1034 169.665C42.0527 169.758 41.998 169.844 41.9434 169.934C41.1082 169.825 40.273 169.743 39.512 169.583C33.0881 168.233 26.6448 166.96 20.2248 165.606C15.9201 164.697 11.6505 163.522 7.32631 162.683C7.27167 162.273 7.23264 161.856 7.20923 161.438C13.7853 162.375 20.2521 163.92 26.6916 165.528C30.4928 166.476 34.2512 167.596 38.0329 168.615C39.313 168.958 40.7336 169.275 42.1034 169.665Z" fill="#F2BEB7"/>
<path d="M42.4583 151.584C39.9489 150.956 37.4355 150.34 34.9261 149.703C29.3101 148.283 23.7565 146.609 18.1366 145.196C17.3405 144.997 16.5053 144.817 15.6584 144.634C16.8409 143.857 18.1171 143.214 19.4674 142.726C24.2249 144.002 28.9667 145.337 33.7241 146.609C36.0111 147.221 38.2824 147.889 40.5265 148.634C41.2641 149.551 41.912 150.539 42.4583 151.584Z" fill="#F2BEB7"/>
<path d="M44.5618 161.653C44.5501 161.821 44.5384 161.989 44.5188 162.153C44.5188 162.168 44.5188 162.184 44.5149 162.2C44.5032 162.367 44.4837 162.531 44.4603 162.695C43.9022 162.605 43.348 162.512 42.8095 162.426C40.5576 162.059 38.2784 161.778 36.1163 161.107C33.9425 160.428 31.4994 160.463 29.267 159.971C26.9293 159.456 24.6228 158.824 22.2656 158.387C18.6048 157.704 14.9441 157.044 11.2482 156.556C10.0461 156.4 8.8246 156.381 7.62256 156.225V156.221C7.79818 155.429 8.02454 154.652 8.29773 153.899C9.97199 154.246 12.782 155.112 14.0464 155.538C16.31 156.295 18.7141 156.549 21.0284 157.142C25.216 158.211 29.4153 159.156 33.6342 159.967C34.3835 160.112 44.5618 161.638 44.5618 161.653Z" fill="#F2BEB7"/>
<path opacity="0.2" d="M23.1322 178.816C17.8753 178.04 13.3325 175.078 10.4523 170.883C9.10195 168.923 8.12237 166.691 7.59941 164.287C7.32231 163.003 7.17401 161.669 7.17401 160.303C7.17401 159.745 7.19743 159.194 7.24816 158.648C7.3028 158.016 7.38866 157.395 7.50574 156.787C7.75552 155.46 8.14969 154.184 8.66485 152.97C9.07854 151.998 9.57418 151.069 10.1401 150.191C10.8113 149.145 11.5841 148.174 12.4466 147.288C14.4448 145.223 16.9152 143.616 19.6861 142.644C14.9677 149.789 13.754 159.233 16.4352 167.487C17.8128 171.726 20.2988 175.417 23.1322 178.816Z" fill="#FF9085"/>
<path d="M32.5925 148.884C28.9201 152.298 31.2227 161.376 36.6201 161.657C41.319 161.902 40.9248 156.747 40.0701 153.625C39.4652 151.412 38.6144 149.77 36.5616 148.72C35.2659 148.06 33.9116 147.537 32.5925 148.884Z" fill="#EDD6F2"/>
</g>
<g clip-path="url(#clip1_403_209)">
<path d="M281.831 51.258C281.831 58.526 277.102 64.709 270.529 66.8791C268.911 67.4114 267.191 67.6981 265.389 67.6981C256.319 67.6981 248.968 60.3277 248.968 51.258C248.968 43.0277 255.008 36.2101 262.912 35.0226C263.71 34.8998 264.55 34.8384 265.389 34.8384C274.481 34.8384 281.831 42.1883 281.831 51.258Z" fill="#FFBC4D"/>
<path opacity="0.2" d="M270.529 66.8789C268.911 67.4113 267.191 67.6979 265.389 67.6979C256.319 67.6979 248.968 60.3275 248.968 51.2578C248.968 43.0275 255.008 36.2099 262.912 35.0225C261.827 38.7691 261.294 42.5976 261.151 45.1363C260.475 57.0927 264.181 61.8016 270.529 66.8789Z" fill="#4E2A67"/>
</g>
<defs>
<clipPath id="clip0_403_209">
<rect width="51.7852" height="51.7789" fill="white" transform="translate(0.000732422 134.413)"/>
</clipPath>
<clipPath id="clip1_403_209">
<rect width="32.8637" height="32.8597" fill="white" transform="translate(248.968 34.8384)"/>
</clipPath>
</defs>
</svg>
